FILE "Wizard's Harmony R (Japan).bin" BINARY
  TRACK 01 MODE2/2352
    INDEX 01 00:00:00
  TRACK 02 AUDIO
    INDEX 00 33:16:46
    INDEX 01 33:18:46
  TRACK 03 AUDIO
    INDEX 00 35:20:40
    INDEX 01 35:22:40
  TRACK 04 AUDIO
    INDEX 00 37:34:69
    INDEX 01 37:36:69
  TRACK 05 AUDIO
    INDEX 00 39:06:67
    INDEX 01 39:08:67
REM LEADOUT 42:16:43
